<?xml version="1.0" encoding="utf-8" ?>
<svg baseProfile="full" height="248.03149000000002" version="1.1" width="531.49605" xmlns="http://www.w3.org/2000/svg" xmlns:ev="http://www.w3.org/2001/xml-events" xmlns:xlink="http://www.w3.org/1999/xlink"><defs /><rect fill="white" height="248.03149000000002" opacity="1" stroke-width="0" width="531.49605" x="0.0" y="0.0" /><g><g id="vlines" stroke="lightgray"><line x1="0.0" x2="0.0" y1="70.86614" y2="212.59842" /><text fill="black" font-family="Carlito" font-size="12" stroke="black" stroke-width="0" x="3.543307" y="67.322833">W 05</text><line x1="35.43307" x2="35.43307" y1="70.86614" y2="212.59842" /><text fill="black" font-family="Carlito" font-size="12" stroke="black" stroke-width="0" x="38.976377" y="67.322833">T 06</text><line x1="70.86614" x2="70.86614" y1="70.86614" y2="212.59842" /><rect fill="gray" height="141.73228" opacity="0.7" stroke="lightgray" stroke-width="1" width="35.43307" x="70.86614" y="70.86614" /><text fill="black" font-family="Carlito" font-size="12" stroke="black" stroke-width="0" x="74.409447" y="67.322833">F 07</text><line x1="106.29921" x2="106.29921" y1="70.86614" y2="212.59842" /><rect fill="gray" height="141.73228" opacity="0.7" stroke="lightgray" stroke-width="1" width="35.43307" x="106.29921" y="70.86614" /><text fill="black" font-family="Carlito" font-size="12" stroke="black" stroke-width="0" x="109.842517" y="67.322833">S 08</text><line x1="141.73228" x2="141.73228" y1="70.86614" y2="212.59842" /><rect fill="gray" height="141.73228" opacity="0.7" stroke="lightgray" stroke-width="1" width="35.43307" x="141.73228" y="70.86614" /><text fill="black" font-family="Carlito" font-size="12" stroke="black" stroke-width="0" x="145.275587" y="67.322833">S 09</text><line x1="177.16535" x2="177.16535" y1="70.86614" y2="212.59842" /><text fill="black" font-family="Carlito" font-size="12" stroke="black" stroke-width="0" x="180.708657" y="67.322833">M 10</text><text fill="black" font-family="Carlito" font-size="16" font-weight="bold" stroke="black" stroke-width="0" x="180.708657" y="53.149605">15</text><line x1="212.59842" x2="212.59842" y1="70.86614" y2="212.59842" /><text fill="black" font-family="Carlito" font-size="12" stroke="black" stroke-width="0" x="216.141727" y="67.322833">T 11</text><line x1="248.03149000000002" x2="248.03149000000002" y1="70.86614" y2="212.59842" /><text fill="black" font-family="Carlito" font-size="12" stroke="black" stroke-width="0" x="251.574797" y="67.322833">W 12</text><line x1="283.46456" x2="283.46456" y1="70.86614" y2="212.59842" /><text fill="black" font-family="Carlito" font-size="12" stroke="black" stroke-width="0" x="287.007867" y="67.322833">T 13</text><line x1="318.89763" x2="318.89763" y1="70.86614" y2="212.59842" /><text fill="black" font-family="Carlito" font-size="12" stroke="black" stroke-width="0" x="322.440937" y="67.322833">F 14</text><line x1="354.3307" x2="354.3307" y1="70.86614" y2="212.59842" /><rect fill="gray" height="141.73228" opacity="0.7" stroke="lightgray" stroke-width="1" width="35.43307" x="354.3307" y="70.86614" /><text fill="black" font-family="Carlito" font-size="12" stroke="black" stroke-width="0" x="357.874007" y="67.322833">S 15</text><line x1="389.76377" x2="389.76377" y1="70.86614" y2="212.59842" /><rect fill="gray" height="141.73228" opacity="0.7" stroke="lightgray" stroke-width="1" width="35.43307" x="389.76377" y="70.86614" /><text fill="black" font-family="Carlito" font-size="12" stroke="black" stroke-width="0" x="393.307077" y="67.322833">S 16</text><line x1="425.19684" x2="425.19684" y1="70.86614" y2="212.59842" /><text fill="black" font-family="Carlito" font-size="12" stroke="black" stroke-width="0" x="428.740147" y="67.322833">M 17</text><text fill="black" font-family="Carlito" font-size="16" font-weight="bold" stroke="black" stroke-width="0" x="428.740147" y="53.149605">16</text><line x1="460.62991" x2="460.62991" y1="70.86614" y2="212.59842" /><text fill="black" font-family="Carlito" font-size="12" stroke="black" stroke-width="0" x="464.173217" y="67.322833">T 18</text><line x1="496.06298000000004" x2="496.06298000000004" y1="70.86614" y2="212.59842" /><text fill="black" font-family="Carlito" font-size="12" stroke="black" stroke-width="0" x="499.606287" y="67.322833">W 19</text><line x1="531.49605" x2="531.49605" y1="70.86614" y2="212.59842" /></g><g id="hlines" stroke="lightgray"><line x1="0.0" x2="531.49605" y1="70.86614" y2="70.86614" /><line x1="0.0" x2="531.49605" y1="106.29921" y2="106.29921" /><line x1="0.0" x2="531.49605" y1="141.73228" y2="141.73228" /><line x1="0.0" x2="531.49605" y1="177.16535" y2="177.16535" /><line x1="0.0" x2="531.49605" y1="212.59842" y2="212.59842" /></g><line stroke="black" x1="0.0" x2="531.49605" y1="70.86614" y2="70.86614" /><line stroke="black" x1="0.0" x2="531.49605" y1="212.59842" y2="212.59842" /></g><g><g><text fill="black" font-family="Carlito" font-size="18" stroke="black" stroke-width="0" x="10.629921" y="95.669289">SOURCE6</text><rect fill="purple" height="120.472438" opacity="0.5" stroke="lightgray" stroke-width="0" width="7.086614000000001" x="2.8346456" y="88.582675" /><g><g id="Task_27"><rect fill="aqua" height="28.346456" opacity="0.85" stroke="aqua" stroke-width="2" width="63.779526" x="3.543307" y="109.842517" /><rect fill="#909090" height="10.629921" opacity="0.2" stroke="aqua" stroke-width="1" width="63.779526" x="3.543307" y="127.559052" /><rect fill="#F08000" height="10.629921" opacity="0.35" stroke="aqua" stroke-width="1" width="51.0236208" x="3.543307" y="127.559052" /><text fill="black" font-family="Carlito" font-size="15" stroke="black" stroke-width="0" x="7.086614" y="124.015745">26 - Task 27</text><text fill="purple" font-family="Carlito" font-size="10" stroke="black" stroke-width="0" x="7.086614" y="136.4173195">Marisa Heidegger</text></g><g id="Task_28"><rect fill="aqua" height="28.346456" opacity="0.85" stroke="aqua" stroke-width="2" width="99.212596" x="180.708657" y="145.275587" /><rect fill="#909090" height="10.629921" opacity="0.2" stroke="aqua" stroke-width="1" width="99.212596" x="180.708657" y="162.992122" /><text fill="black" font-family="Carlito" font-size="15" stroke="black" stroke-width="0" x="184.251964" y="159.448815">27 - Task 28</text><text fill="purple" font-family="Carlito" font-size="10" stroke="black" stroke-width="0" x="184.251964" y="171.8503895">Marisa Heidegger</text></g><g id="Task_29"><rect fill="aqua" height="28.346456" opacity="0.85" stroke="aqua" stroke-width="2" width="240.944876" x="287.007867" y="180.708657" /><rect fill="#909090" height="10.629921" opacity="0.2" stroke="aqua" stroke-width="1" width="240.944876" x="287.007867" y="198.425192" /><text fill="black" font-family="Carlito" font-size="15" stroke="black" stroke-width="0" x="290.551174" y="194.881885">28 - Task 29</text><text fill="purple" font-family="Carlito" font-size="10" stroke="black" stroke-width="0" x="290.551174" y="207.2834595">Marisa Heidegger</text></g></g></g><g><g /><g><line stroke="black" stroke-dasharray="5,3" x1="63.779526" x2="177.16535" y1="124.015745" y2="124.015745" /><marker id="id22" markerHeight="10" markerWidth="10" refX="5" refY="5"><circle cx="5" cy="5" fill="#000000" opacity="0.5" r="5" stroke-width="0" /></marker><line marker-end="url(#id22)" stroke="black" stroke-dasharray="5,3" x1="177.16535" x2="177.16535" y1="124.015745" y2="159.448815" /></g><g><line stroke="black" stroke-dasharray="5,3" x1="276.377946" x2="283.46456" y1="159.448815" y2="159.448815" /><marker id="id23" markerHeight="10" markerWidth="10" refX="5" refY="5"><circle cx="5" cy="5" fill="#000000" opacity="0.5" r="5" stroke-width="0" /></marker><line marker-end="url(#id23)" stroke="black" stroke-dasharray="5,3" x1="283.46456" x2="283.46456" y1="159.448815" y2="194.881885" /></g></g></g></svg>