<?xml version="1.0" encoding="utf-8" ?>
<svg baseProfile="full" height="283.46456" version="1.1" width="744.09447" xmlns="http://www.w3.org/2000/svg" xmlns:ev="http://www.w3.org/2001/xml-events" xmlns:xlink="http://www.w3.org/1999/xlink"><defs /><rect fill="white" height="283.46456" opacity="1" stroke-width="0" width="744.09447" x="0.0" y="0.0" /><g><g id="vlines" stroke="lightgray"><line x1="0.0" x2="0.0" y1="70.86614" y2="248.03149000000002" /><text fill="black" font-family="Carlito" font-size="12" stroke="black" stroke-width="0" x="3.543307" y="67.322833">T 06</text><line x1="35.43307" x2="35.43307" y1="70.86614" y2="248.03149000000002" /><rect fill="gray" height="177.16535" opacity="0.7" stroke="lightgray" stroke-width="1" width="35.43307" x="35.43307" y="70.86614" /><text fill="black" font-family="Carlito" font-size="12" stroke="black" stroke-width="0" x="38.976377" y="67.322833">F 07</text><line x1="70.86614" x2="70.86614" y1="70.86614" y2="248.03149000000002" /><rect fill="gray" height="177.16535" opacity="0.7" stroke="lightgray" stroke-width="1" width="35.43307" x="70.86614" y="70.86614" /><text fill="black" font-family="Carlito" font-size="12" stroke="black" stroke-width="0" x="74.409447" y="67.322833">S 08</text><line x1="106.29921" x2="106.29921" y1="70.86614" y2="248.03149000000002" /><rect fill="gray" height="177.16535" opacity="0.7" stroke="lightgray" stroke-width="1" width="35.43307" x="106.29921" y="70.86614" /><text fill="black" font-family="Carlito" font-size="12" stroke="black" stroke-width="0" x="109.842517" y="67.322833">S 09</text><line x1="141.73228" x2="141.73228" y1="70.86614" y2="248.03149000000002" /><text fill="black" font-family="Carlito" font-size="12" stroke="black" stroke-width="0" x="145.275587" y="67.322833">M 10</text><text fill="black" font-family="Carlito" font-size="16" font-weight="bold" stroke="black" stroke-width="0" x="145.275587" y="53.149605">15</text><line x1="177.16535" x2="177.16535" y1="70.86614" y2="248.03149000000002" /><text fill="black" font-family="Carlito" font-size="12" stroke="black" stroke-width="0" x="180.708657" y="67.322833">T 11</text><line x1="212.59842" x2="212.59842" y1="70.86614" y2="248.03149000000002" /><text fill="black" font-family="Carlito" font-size="12" stroke="black" stroke-width="0" x="216.141727" y="67.322833">W 12</text><line x1="248.03149000000002" x2="248.03149000000002" y1="70.86614" y2="248.03149000000002" /><text fill="black" font-family="Carlito" font-size="12" stroke="black" stroke-width="0" x="251.574797" y="67.322833">T 13</text><line x1="283.46456" x2="283.46456" y1="70.86614" y2="248.03149000000002" /><text fill="black" font-family="Carlito" font-size="12" stroke="black" stroke-width="0" x="287.007867" y="67.322833">F 14</text><line x1="318.89763" x2="318.89763" y1="70.86614" y2="248.03149000000002" /><rect fill="gray" height="177.16535" opacity="0.7" stroke="lightgray" stroke-width="1" width="35.43307" x="318.89763" y="70.86614" /><text fill="black" font-family="Carlito" font-size="12" stroke="black" stroke-width="0" x="322.440937" y="67.322833">S 15</text><line x1="354.3307" x2="354.3307" y1="70.86614" y2="248.03149000000002" /><rect fill="gray" height="177.16535" opacity="0.7" stroke="lightgray" stroke-width="1" width="35.43307" x="354.3307" y="70.86614" /><text fill="black" font-family="Carlito" font-size="12" stroke="black" stroke-width="0" x="357.874007" y="67.322833">S 16</text><line x1="389.76377" x2="389.76377" y1="70.86614" y2="248.03149000000002" /><text fill="black" font-family="Carlito" font-size="12" stroke="black" stroke-width="0" x="393.307077" y="67.322833">M 17</text><text fill="black" font-family="Carlito" font-size="16" font-weight="bold" stroke="black" stroke-width="0" x="393.307077" y="53.149605">16</text><line x1="425.19684" x2="425.19684" y1="70.86614" y2="248.03149000000002" /><text fill="black" font-family="Carlito" font-size="12" stroke="black" stroke-width="0" x="428.740147" y="67.322833">T 18</text><line x1="460.62991" x2="460.62991" y1="70.86614" y2="248.03149000000002" /><text fill="black" font-family="Carlito" font-size="12" stroke="black" stroke-width="0" x="464.173217" y="67.322833">W 19</text><line x1="496.06298000000004" x2="496.06298000000004" y1="70.86614" y2="248.03149000000002" /><text fill="black" font-family="Carlito" font-size="12" stroke="black" stroke-width="0" x="499.606287" y="67.322833">T 20</text><line x1="531.49605" x2="531.49605" y1="70.86614" y2="248.03149000000002" /><rect fill="gray" height="177.16535" opacity="0.7" stroke="lightgray" stroke-width="1" width="35.43307" x="531.49605" y="70.86614" /><text fill="black" font-family="Carlito" font-size="12" stroke="black" stroke-width="0" x="535.039357" y="67.322833">F 21</text><line x1="566.92912" x2="566.92912" y1="70.86614" y2="248.03149000000002" /><rect fill="gray" height="177.16535" opacity="0.7" stroke="lightgray" stroke-width="1" width="35.43307" x="566.92912" y="70.86614" /><text fill="black" font-family="Carlito" font-size="12" stroke="black" stroke-width="0" x="570.472427" y="67.322833">S 22</text><line x1="602.36219" x2="602.36219" y1="70.86614" y2="248.03149000000002" /><rect fill="gray" height="177.16535" opacity="0.7" stroke="lightgray" stroke-width="1" width="35.43307" x="602.36219" y="70.86614" /><text fill="black" font-family="Carlito" font-size="12" stroke="black" stroke-width="0" x="605.905497" y="67.322833">S 23</text><line x1="637.79526" x2="637.79526" y1="70.86614" y2="248.03149000000002" /><text fill="black" font-family="Carlito" font-size="12" stroke="black" stroke-width="0" x="641.338567" y="67.322833">M 24</text><text fill="black" font-family="Carlito" font-size="16" font-weight="bold" stroke="black" stroke-width="0" x="641.338567" y="53.149605">17</text><line x1="673.22833" x2="673.22833" y1="70.86614" y2="248.03149000000002" /><text fill="black" font-family="Carlito" font-size="12" stroke="black" stroke-width="0" x="676.7716369999999" y="67.322833">T 25</text><line x1="708.6614" x2="708.6614" y1="70.86614" y2="248.03149000000002" /><text fill="black" font-family="Carlito" font-size="12" stroke="black" stroke-width="0" x="712.204707" y="67.322833">W 26</text><line x1="744.09447" x2="744.09447" y1="70.86614" y2="248.03149000000002" /></g><g id="hlines" stroke="lightgray"><line x1="0.0" x2="744.09447" y1="70.86614" y2="70.86614" /><line x1="0.0" x2="744.09447" y1="106.29921" y2="106.29921" /><line x1="0.0" x2="744.09447" y1="141.73228" y2="141.73228" /><line x1="0.0" x2="744.09447" y1="177.16535" y2="177.16535" /><line x1="0.0" x2="744.09447" y1="212.59842" y2="212.59842" /><line x1="0.0" x2="744.09447" y1="248.03149000000002" y2="248.03149000000002" /></g><line stroke="black" x1="0.0" x2="744.09447" y1="70.86614" y2="70.86614" /><line stroke="black" x1="0.0" x2="744.09447" y1="248.03149000000002" y2="248.03149000000002" /></g><g><g><text fill="black" font-family="Carlito" font-size="18" stroke="black" stroke-width="0" x="10.629921" y="95.669289">SOURCE2</text><rect fill="purple" height="155.90550800000003" opacity="0.5" stroke="lightgray" stroke-width="0" width="7.086614000000001" x="2.8346456" y="88.582675" /><g><g id="Task_15"><rect fill="lime" height="28.346456" opacity="0.85" stroke="lime" stroke-width="2" width="311.811016" x="3.543307" y="109.842517" /><rect fill="#909090" height="10.629921" opacity="0.2" stroke="lime" stroke-width="1" width="311.811016" x="3.543307" y="127.559052" /><rect fill="#F08000" height="10.629921" opacity="0.35" stroke="lime" stroke-width="1" width="218.2677112" x="3.543307" y="127.559052" /><text fill="black" font-family="Carlito" font-size="15" stroke="black" stroke-width="0" x="7.086614" y="124.015745">14 - Task 15</text><text fill="purple" font-family="Carlito" font-size="10" stroke="black" stroke-width="0" x="7.086614" y="136.4173195">Marisa Heidegger</text></g><g id="Task_16"><rect fill="lime" height="28.346456" opacity="0.85" stroke="lime" stroke-width="2" width="63.779526" x="393.307077" y="145.275587" /><rect fill="#909090" height="10.629921" opacity="0.2" stroke="lime" stroke-width="1" width="63.779526" x="393.307077" y="162.992122" /><text fill="black" font-family="Carlito" font-size="15" stroke="black" stroke-width="0" x="396.850384" y="159.448815">15 - Task 16</text><text fill="purple" font-family="Carlito" font-size="10" stroke="black" stroke-width="0" x="396.850384" y="171.8503895">Regerio Moraes</text></g><g id="Task_17"><rect fill="lime" height="28.346456" opacity="0.85" stroke="lime" stroke-width="2" width="276.377946" x="464.173217" y="180.708657" /><rect fill="#909090" height="10.629921" opacity="0.2" stroke="lime" stroke-width="1" width="276.377946" x="464.173217" y="198.425192" /><text fill="black" font-family="Carlito" font-size="15" stroke="black" stroke-width="0" x="467.716524" y="194.881885">16 - Task 17</text><text fill="purple" font-family="Carlito" font-size="10" stroke="black" stroke-width="0" x="467.716524" y="207.2834595">Regerio Moraes</text></g><g id="Task_18"><rect fill="lime" height="28.346456" opacity="0.85" stroke="lime" stroke-width="2" width="63.779526" x="393.307077" y="216.141727" /><rect fill="#909090" height="10.629921" opacity="0.2" stroke="lime" stroke-width="1" width="63.779526" x="393.307077" y="233.858262" /><rect fill="#0000FF" height="14.173228" opacity="0.35" stroke="lime" stroke-width="1" width="17.716535" x="393.307077" y="216.141727" /><rect fill="#F08000" height="10.629921" opacity="0.35" stroke="lime" stroke-width="1" width="12.7559052" x="393.307077" y="233.858262" /><text fill="black" font-family="Carlito" font-size="15" stroke="black" stroke-width="0" x="396.850384" y="230.314955">17 - Task 18</text><text fill="purple" font-family="Carlito" font-size="10" stroke="black" stroke-width="0" x="396.850384" y="242.7165295">Regerio Moraes</text></g></g></g><g><g /><g><line stroke="black" stroke-dasharray="5,3" x1="311.811016" x2="389.76377" y1="124.015745" y2="124.015745" /><marker id="id15" markerHeight="10" markerWidth="10" refX="5" refY="5"><circle cx="5" cy="5" fill="#000000" opacity="0.5" r="5" stroke-width="0" /></marker><line marker-end="url(#id15)" stroke="black" stroke-dasharray="5,3" x1="389.76377" x2="389.76377" y1="124.015745" y2="159.448815" /></g><g><line stroke="black" stroke-dasharray="5,3" x1="453.543296" x2="460.62991" y1="159.448815" y2="159.448815" /><marker id="id16" markerHeight="10" markerWidth="10" refX="5" refY="5"><circle cx="5" cy="5" fill="#000000" opacity="0.5" r="5" stroke-width="0" /></marker><line marker-end="url(#id16)" stroke="black" stroke-dasharray="5,3" x1="460.62991" x2="460.62991" y1="159.448815" y2="194.881885" /></g><g><line stroke="black" stroke-dasharray="5,3" x1="311.811016" x2="389.76377" y1="124.015745" y2="124.015745" /><marker id="id17" markerHeight="10" markerWidth="10" refX="5" refY="5"><circle cx="5" cy="5" fill="#000000" opacity="0.5" r="5" stroke-width="0" /></marker><line marker-end="url(#id17)" stroke="black" stroke-dasharray="5,3" x1="389.76377" x2="389.76377" y1="124.015745" y2="230.314955" /></g></g></g></svg>