<?xml version="1.0" encoding="utf-8" ?>
<svg baseProfile="full" height="177.16535" version="1.1" width="248.03149000000002" xmlns="http://www.w3.org/2000/svg" xmlns:ev="http://www.w3.org/2001/xml-events" xmlns:xlink="http://www.w3.org/1999/xlink"><defs /><rect fill="white" height="177.16535" opacity="1" stroke-width="0" width="248.03149000000002" x="0.0" y="0.0" /><g><g id="vlines" stroke="lightgray"><line x1="0.0" x2="0.0" y1="70.86614" y2="141.73228" /><text fill="black" font-family="Carlito" font-size="12" stroke="black" stroke-width="0" x="3.543307" y="67.322833">F 31</text><line x1="35.43307" x2="35.43307" y1="70.86614" y2="141.73228" /><rect fill="gray" height="70.86614" opacity="0.7" stroke="lightgray" stroke-width="1" width="35.43307" x="35.43307" y="70.86614" /><text fill="black" font-family="Carlito" font-size="12" stroke="black" stroke-width="0" x="38.976377" y="67.322833">S 01</text><text fill="#800000" font-family="Carlito" font-size="18" font-weight="bold" stroke="#800000" stroke-width="0" x="38.976377" y="35.43307">April</text><line x1="70.86614" x2="70.86614" y1="70.86614" y2="141.73228" /><rect fill="gray" height="70.86614" opacity="0.7" stroke="lightgray" stroke-width="1" width="35.43307" x="70.86614" y="70.86614" /><text fill="black" font-family="Carlito" font-size="12" stroke="black" stroke-width="0" x="74.409447" y="67.322833">S 02</text><line x1="106.29921" x2="106.29921" y1="70.86614" y2="141.73228" /><text fill="black" font-family="Carlito" font-size="12" stroke="black" stroke-width="0" x="109.842517" y="67.322833">M 03</text><text fill="black" font-family="Carlito" font-size="16" font-weight="bold" stroke="black" stroke-width="0" x="109.842517" y="53.149605">14</text><line x1="141.73228" x2="141.73228" y1="70.86614" y2="141.73228" /><text fill="black" font-family="Carlito" font-size="12" stroke="black" stroke-width="0" x="145.275587" y="67.322833">T 04</text><line x1="177.16535" x2="177.16535" y1="70.86614" y2="141.73228" /><text fill="black" font-family="Carlito" font-size="12" stroke="black" stroke-width="0" x="180.708657" y="67.322833">W 05</text><line x1="212.59842" x2="212.59842" y1="70.86614" y2="141.73228" /><text fill="black" font-family="Carlito" font-size="12" stroke="black" stroke-width="0" x="216.141727" y="67.322833">T 06</text><line x1="248.03149000000002" x2="248.03149000000002" y1="70.86614" y2="141.73228" /></g><g id="hlines" stroke="lightgray"><line x1="0.0" x2="248.03149000000002" y1="70.86614" y2="70.86614" /><line x1="0.0" x2="248.03149000000002" y1="106.29921" y2="106.29921" /><line x1="0.0" x2="248.03149000000002" y1="141.73228" y2="141.73228" /></g><line stroke="black" x1="0.0" x2="248.03149000000002" y1="70.86614" y2="70.86614" /><line stroke="black" x1="0.0" x2="248.03149000000002" y1="141.73228" y2="141.73228" /></g><g><g><text fill="black" font-family="Carlito" font-size="18" stroke="black" stroke-width="0" x="10.629921" y="95.669289">SOURCE5</text><rect fill="purple" height="49.606297999999995" opacity="0.5" stroke="lightgray" stroke-width="0" width="7.086614000000001" x="2.8346456" y="88.582675" /><g><g id="Task_26"><rect fill="green" height="28.346456" opacity="0.85" stroke="green" stroke-width="2" width="240.944876" x="3.543307" y="109.842517" /><rect fill="#909090" height="10.629921" opacity="0.2" stroke="green" stroke-width="1" width="240.944876" x="3.543307" y="127.559052" /><rect fill="#F08000" height="10.629921" opacity="0.35" stroke="green" stroke-width="1" width="144.5669256" x="3.543307" y="127.559052" /><text fill="black" font-family="Carlito" font-size="15" stroke="black" stroke-width="0" x="7.086614" y="124.015745">25 - Task 26</text><text fill="purple" font-family="Carlito" font-size="10" stroke="black" stroke-width="0" x="7.086614" y="136.4173195">Ismael Ferraz</text></g></g></g><g><g /></g></g></svg>