<?xml version="1.0" encoding="utf-8" ?>
<svg baseProfile="full" height="318.89763" version="1.1" width="566.92912" xmlns="http://www.w3.org/2000/svg" xmlns:ev="http://www.w3.org/2001/xml-events" xmlns:xlink="http://www.w3.org/1999/xlink"><defs /><rect fill="white" height="318.89763" opacity="1" stroke-width="0" width="566.92912" x="0.0" y="0.0" /><g><g id="vlines" stroke="lightgray"><line x1="0.0" x2="0.0" y1="70.86614" y2="283.46456" /><text fill="black" font-family="Carlito" font-size="12" stroke="black" stroke-width="0" x="3.543307" y="67.322833">M 10</text><text fill="black" font-family="Carlito" font-size="16" font-weight="bold" stroke="black" stroke-width="0" x="3.543307" y="53.149605">15</text><line x1="35.43307" x2="35.43307" y1="70.86614" y2="283.46456" /><text fill="black" font-family="Carlito" font-size="12" stroke="black" stroke-width="0" x="38.976377" y="67.322833">T 11</text><line x1="70.86614" x2="70.86614" y1="70.86614" y2="283.46456" /><text fill="black" font-family="Carlito" font-size="12" stroke="black" stroke-width="0" x="74.409447" y="67.322833">W 12</text><line x1="106.29921" x2="106.29921" y1="70.86614" y2="283.46456" /><text fill="black" font-family="Carlito" font-size="12" stroke="black" stroke-width="0" x="109.842517" y="67.322833">T 13</text><line x1="141.73228" x2="141.73228" y1="70.86614" y2="283.46456" /><text fill="black" font-family="Carlito" font-size="12" stroke="black" stroke-width="0" x="145.275587" y="67.322833">F 14</text><line x1="177.16535" x2="177.16535" y1="70.86614" y2="283.46456" /><rect fill="gray" height="212.59842" opacity="0.7" stroke="lightgray" stroke-width="1" width="35.43307" x="177.16535" y="70.86614" /><text fill="black" font-family="Carlito" font-size="12" stroke="black" stroke-width="0" x="180.708657" y="67.322833">S 15</text><line x1="212.59842" x2="212.59842" y1="70.86614" y2="283.46456" /><rect fill="gray" height="212.59842" opacity="0.7" stroke="lightgray" stroke-width="1" width="35.43307" x="212.59842" y="70.86614" /><text fill="black" font-family="Carlito" font-size="12" stroke="black" stroke-width="0" x="216.141727" y="67.322833">S 16</text><line x1="248.03149000000002" x2="248.03149000000002" y1="70.86614" y2="283.46456" /><text fill="black" font-family="Carlito" font-size="12" stroke="black" stroke-width="0" x="251.574797" y="67.322833">M 17</text><text fill="black" font-family="Carlito" font-size="16" font-weight="bold" stroke="black" stroke-width="0" x="251.574797" y="53.149605">16</text><line x1="283.46456" x2="283.46456" y1="70.86614" y2="283.46456" /><text fill="black" font-family="Carlito" font-size="12" stroke="black" stroke-width="0" x="287.007867" y="67.322833">T 18</text><line x1="318.89763" x2="318.89763" y1="70.86614" y2="283.46456" /><text fill="black" font-family="Carlito" font-size="12" stroke="black" stroke-width="0" x="322.440937" y="67.322833">W 19</text><line x1="354.3307" x2="354.3307" y1="70.86614" y2="283.46456" /><text fill="black" font-family="Carlito" font-size="12" stroke="black" stroke-width="0" x="357.874007" y="67.322833">T 20</text><line x1="389.76377" x2="389.76377" y1="70.86614" y2="283.46456" /><rect fill="gray" height="212.59842" opacity="0.7" stroke="lightgray" stroke-width="1" width="35.43307" x="389.76377" y="70.86614" /><text fill="black" font-family="Carlito" font-size="12" stroke="black" stroke-width="0" x="393.307077" y="67.322833">F 21</text><line x1="425.19684" x2="425.19684" y1="70.86614" y2="283.46456" /><rect fill="gray" height="212.59842" opacity="0.7" stroke="lightgray" stroke-width="1" width="35.43307" x="425.19684" y="70.86614" /><text fill="black" font-family="Carlito" font-size="12" stroke="black" stroke-width="0" x="428.740147" y="67.322833">S 22</text><line x1="460.62991" x2="460.62991" y1="70.86614" y2="283.46456" /><rect fill="gray" height="212.59842" opacity="0.7" stroke="lightgray" stroke-width="1" width="35.43307" x="460.62991" y="70.86614" /><text fill="black" font-family="Carlito" font-size="12" stroke="black" stroke-width="0" x="464.173217" y="67.322833">S 23</text><line x1="496.06298000000004" x2="496.06298000000004" y1="70.86614" y2="283.46456" /><text fill="black" font-family="Carlito" font-size="12" stroke="black" stroke-width="0" x="499.606287" y="67.322833">M 24</text><text fill="black" font-family="Carlito" font-size="16" font-weight="bold" stroke="black" stroke-width="0" x="499.606287" y="53.149605">17</text><line x1="531.49605" x2="531.49605" y1="70.86614" y2="283.46456" /><text fill="black" font-family="Carlito" font-size="12" stroke="black" stroke-width="0" x="535.039357" y="67.322833">T 25</text><line x1="566.92912" x2="566.92912" y1="70.86614" y2="283.46456" /></g><g id="hlines" stroke="lightgray"><line x1="0.0" x2="566.92912" y1="70.86614" y2="70.86614" /><line x1="0.0" x2="566.92912" y1="106.29921" y2="106.29921" /><line x1="0.0" x2="566.92912" y1="141.73228" y2="141.73228" /><line x1="0.0" x2="566.92912" y1="177.16535" y2="177.16535" /><line x1="0.0" x2="566.92912" y1="212.59842" y2="212.59842" /><line x1="0.0" x2="566.92912" y1="248.03149000000002" y2="248.03149000000002" /><line x1="0.0" x2="566.92912" y1="283.46456" y2="283.46456" /></g><line stroke="black" x1="0.0" x2="566.92912" y1="70.86614" y2="70.86614" /><line stroke="black" x1="0.0" x2="566.92912" y1="283.46456" y2="283.46456" /></g><g><g><text fill="black" font-family="Carlito" font-size="18" stroke="black" stroke-width="0" x="10.629921" y="95.669289">SOURCE3</text><rect fill="purple" height="191.338578" opacity="0.5" stroke="lightgray" stroke-width="0" width="7.086614000000001" x="2.8346456" y="88.582675" /><g><g id="Task_19"><rect fill="lime" height="28.346456" opacity="0.85" stroke="lime" stroke-width="2" width="28.346456" x="3.543307" y="109.842517" /><rect fill="#909090" height="10.629921" opacity="0.2" stroke="lime" stroke-width="1" width="28.346456" x="3.543307" y="127.559052" /><text fill="black" font-family="Carlito" font-size="15" stroke="black" stroke-width="0" x="7.086614" y="124.015745">18 - Task 19</text><text fill="purple" font-family="Carlito" font-size="10" stroke="black" stroke-width="0" x="7.086614" y="136.4173195">Cassiano dos Santos</text></g><g id="Task_20"><rect fill="lime" height="28.346456" opacity="0.85" stroke="lime" stroke-width="2" width="240.944876" x="38.976377" y="145.275587" /><rect fill="#909090" height="10.629921" opacity="0.2" stroke="lime" stroke-width="1" width="240.944876" x="38.976377" y="162.992122" /><rect fill="#0000FF" height="14.173228" opacity="0.35" stroke="lime" stroke-width="1" width="17.716535" x="38.976377" y="145.275587" /><text fill="black" font-family="Carlito" font-size="15" stroke="black" stroke-width="0" x="42.519684" y="159.448815">19 - Task 20</text><text fill="purple" font-family="Carlito" font-size="10" stroke="black" stroke-width="0" x="42.519684" y="171.8503895">Simone Evans</text></g><g id="Task_21"><rect fill="lime" height="28.346456" opacity="0.85" stroke="lime" stroke-width="2" width="63.779526" x="38.976377" y="180.708657" /><rect fill="#909090" height="10.629921" opacity="0.2" stroke="lime" stroke-width="1" width="63.779526" x="38.976377" y="198.425192" /><rect fill="#0000FF" height="14.173228" opacity="0.35" stroke="lime" stroke-width="1" width="17.716535" x="38.976377" y="180.708657" /><text fill="black" font-family="Carlito" font-size="15" stroke="black" stroke-width="0" x="42.519684" y="194.881885">20 - Task 21</text><text fill="purple" font-family="Carlito" font-size="10" stroke="black" stroke-width="0" x="42.519684" y="207.2834595">Juan Eduardo Fernández</text></g><g id="Task_22"><rect fill="lime" height="28.346456" opacity="0.85" stroke="lime" stroke-width="2" width="240.944876" x="287.007867" y="216.141727" /><rect fill="#909090" height="10.629921" opacity="0.2" stroke="lime" stroke-width="1" width="240.944876" x="287.007867" y="233.858262" /><rect fill="#0000FF" height="14.173228" opacity="0.35" stroke="lime" stroke-width="1" width="17.716535" x="287.007867" y="216.141727" /><text fill="black" font-family="Carlito" font-size="15" stroke="black" stroke-width="0" x="290.551174" y="230.314955">21 - Task 22</text><text fill="purple" font-family="Carlito" font-size="10" stroke="black" stroke-width="0" x="290.551174" y="242.7165295">Cassiano dos Santos</text></g><g id="Task_23"><rect fill="lime" height="28.346456" opacity="0.85" stroke="lime" stroke-width="2" width="63.779526" x="499.606287" y="251.574797" /><rect fill="#909090" height="10.629921" opacity="0.2" stroke="lime" stroke-width="1" width="63.779526" x="499.606287" y="269.291332" /><text fill="black" font-family="Carlito" font-size="15" stroke="black" stroke-width="0" x="503.149594" y="265.748025">22 - Task 23</text><text fill="purple" font-family="Carlito" font-size="10" stroke="black" stroke-width="0" x="503.149594" y="278.1495995">Regerio Moraes</text></g></g></g><g><g /><g><line stroke="black" stroke-dasharray="5,3" x1="28.346456" x2="35.43307" y1="124.015745" y2="124.015745" /><marker id="id18" markerHeight="10" markerWidth="10" refX="5" refY="5"><circle cx="5" cy="5" fill="#000000" opacity="0.5" r="5" stroke-width="0" /></marker><line marker-end="url(#id18)" stroke="black" stroke-dasharray="5,3" x1="35.43307" x2="35.43307" y1="124.015745" y2="159.448815" /></g><g><line stroke="black" stroke-dasharray="5,3" x1="28.346456" x2="35.43307" y1="124.015745" y2="124.015745" /><marker id="id19" markerHeight="10" markerWidth="10" refX="5" refY="5"><circle cx="5" cy="5" fill="#000000" opacity="0.5" r="5" stroke-width="0" /></marker><line marker-end="url(#id19)" stroke="black" stroke-dasharray="5,3" x1="35.43307" x2="35.43307" y1="124.015745" y2="194.881885" /></g><g><line stroke="black" stroke-dasharray="5,3" x1="276.377946" x2="283.46456" y1="159.448815" y2="159.448815" /><marker id="id20" markerHeight="10" markerWidth="10" refX="5" refY="5"><circle cx="5" cy="5" fill="#000000" opacity="0.5" r="5" stroke-width="0" /></marker><line marker-end="url(#id20)" stroke="black" stroke-dasharray="5,3" x1="283.46456" x2="283.46456" y1="159.448815" y2="230.314955" /></g><g><line stroke="black" stroke-dasharray="5,3" x1="276.377946" x2="496.06298" y1="159.448815" y2="159.448815" /><marker id="id21" markerHeight="10" markerWidth="10" refX="5" refY="5"><circle cx="5" cy="5" fill="#000000" opacity="0.5" r="5" stroke-width="0" /></marker><line marker-end="url(#id21)" stroke="black" stroke-dasharray="5,3" x1="496.06298" x2="496.06298" y1="159.448815" y2="265.748025" /></g></g></g></svg>